<svg width="24" height="26" viewBox="0 0 24 26" fill="none" xmlns="http://www.w3.org/2000/svg">
<path d="M4.70183 24.6032L5.82717 22.0722C5.48206 21.8193 5.15006 21.5634 4.83117 21.3046C4.51228 21.0454 4.20672 20.7612 3.9145 20.4519C3.75383 20.5186 3.59228 20.5686 3.42983 20.6019C3.26739 20.6352 3.09906 20.6519 2.92483 20.6519C2.24283 20.6519 1.65772 20.4079 1.1695 19.9199C0.6815 19.4319 0.4375 18.8468 0.4375 18.1646C0.4375 17.763 0.525611 17.3896 0.701833 17.0442C0.877833 16.6989 1.11961 16.4126 1.42717 16.1852C1.24939 15.6741 1.12294 15.1574 1.04783 14.6352C0.972722 14.113 0.935166 13.563 0.935166 12.9852C0.935166 12.4074 0.972722 11.8574 1.04783 11.3352C1.12294 10.813 1.24939 10.2963 1.42717 9.78522C1.11961 9.55789 0.877833 9.27155 0.701833 8.92622C0.525611 8.58089 0.4375 8.20744 0.4375 7.80589C0.4375 7.12367 0.6815 6.53856 1.1695 6.05056C1.65772 5.56256 2.24283 5.31855 2.92483 5.31855C3.09906 5.31855 3.26739 5.33522 3.42983 5.36856C3.59228 5.40189 3.75383 5.45189 3.9145 5.51855C4.64783 4.71855 5.4825 4.04978 6.4185 3.51222C7.35428 2.97467 8.3555 2.57678 9.42217 2.31855C9.51617 1.70322 9.80039 1.18611 10.2748 0.767222C10.7491 0.348555 11.2939 0.139221 11.9095 0.139221C12.5248 0.139221 13.0696 0.347777 13.5438 0.764889C14.0183 1.18178 14.3025 1.69111 14.3965 2.29289C15.4803 2.55111 16.4901 2.94555 17.4258 3.47622C18.3618 4.00711 19.1965 4.66567 19.9298 5.45189C20.0905 5.38522 20.2444 5.33956 20.3915 5.31489C20.5384 5.29 20.6922 5.27756 20.8528 5.27756C21.5348 5.27756 22.1199 5.52155 22.6082 6.00955C23.0962 6.49755 23.3402 7.08267 23.3402 7.76489C23.3402 8.16644 23.2555 8.533 23.0862 8.86456C22.9171 9.19633 22.6855 9.47589 22.3915 9.70322C22.5693 10.2279 22.6957 10.7617 22.7708 11.3046C22.8462 11.8472 22.8838 12.4074 22.8838 12.9852C22.8838 13.563 22.8462 14.1241 22.7708 14.6686C22.6957 15.213 22.5693 15.7408 22.3915 16.2519C22.6768 16.4792 22.9021 16.7544 23.0672 17.0776C23.2321 17.4007 23.3145 17.763 23.3145 18.1646C23.3145 18.8468 23.0705 19.4319 22.5825 19.9199C22.0945 20.4079 21.5094 20.6519 20.8272 20.6519C20.6665 20.6519 20.5127 20.6373 20.3658 20.6082C20.2187 20.5791 20.0648 20.5356 19.9042 20.4776C19.6119 20.7869 19.3141 21.0779 19.0105 21.3506C18.7072 21.6232 18.3675 21.886 17.9915 22.1389L19.0632 24.6236C19.1983 24.916 19.1769 25.1904 18.9992 25.4469C18.8214 25.7031 18.5752 25.8312 18.2605 25.8312C18.0761 25.8312 17.9142 25.7817 17.7748 25.6826C17.6355 25.5834 17.5299 25.4552 17.4582 25.2979L16.4528 22.9749C16.1075 23.134 15.7691 23.2699 15.4375 23.3826C15.1059 23.4954 14.7589 23.5938 14.3965 23.6776C14.3025 24.2793 14.0183 24.7887 13.5438 25.2056C13.0696 25.6227 12.5248 25.8312 11.9095 25.8312C11.2939 25.8312 10.7491 25.6219 10.2748 25.2032C9.80039 24.7843 9.51617 24.2672 9.42217 23.6519C9.04617 23.5681 8.68894 23.4698 8.3505 23.3569C8.01206 23.2442 7.67017 23.1083 7.32483 22.9492L6.29383 25.3186C6.22206 25.4759 6.11317 25.6007 5.96717 25.6929C5.82094 25.7851 5.66239 25.8312 5.4915 25.8312C5.17683 25.8312 4.93283 25.6997 4.7595 25.4366C4.58594 25.1732 4.56672 24.8954 4.70183 24.6032ZM6.40683 20.6726L8.7555 15.4159C8.48706 15.0757 8.27894 14.6997 8.13117 14.2879C7.98339 13.8759 7.9095 13.4417 7.9095 12.9852C7.9095 11.8981 8.30428 10.9597 9.09383 10.1699C9.88361 9.38011 10.8222 8.98522 11.9095 8.98522C12.9966 8.98522 13.9351 9.38011 14.7248 10.1699C15.5144 10.9597 15.9092 11.8981 15.9092 12.9852C15.9092 13.4417 15.8276 13.8848 15.6645 14.3146C15.5012 14.7446 15.2785 15.1339 14.9965 15.4826L17.3452 20.6982C17.5965 20.5118 17.8379 20.325 18.0695 20.1379C18.3013 19.9506 18.5231 19.7356 18.7348 19.4929C18.5897 19.3067 18.4876 19.0994 18.4285 18.8712C18.3696 18.643 18.3402 18.4074 18.3402 18.1646C18.3402 17.4534 18.6038 16.8531 19.1312 16.3636C19.6585 15.8738 20.2649 15.6537 20.9505 15.7032C21.0838 15.2588 21.1881 14.8156 21.2632 14.3736C21.3385 13.9318 21.3762 13.469 21.3762 12.9852C21.3762 12.5014 21.3385 12.0318 21.2632 11.5762C21.1881 11.1207 21.0838 10.6707 20.9505 10.2262C20.2649 10.2758 19.6627 10.0557 19.1438 9.56589C18.6252 9.07633 18.3658 8.476 18.3658 7.76489C18.3658 7.53911 18.4043 7.319 18.4812 7.10456C18.5581 6.88989 18.6512 6.68944 18.7605 6.50322C18.1161 5.833 17.3986 5.27356 16.6082 4.82489C15.8175 4.37622 14.9761 4.02967 14.0838 3.78522C13.8821 4.18855 13.5902 4.51078 13.2082 4.75189C12.8259 4.993 12.3931 5.11355 11.9095 5.11355C11.4257 5.11355 10.9927 4.993 10.6105 4.75189C10.2285 4.51078 9.93661 4.18855 9.73483 3.78522C8.81528 4.02967 7.96017 4.37967 7.1695 4.83522C6.37906 5.29078 5.66161 5.86044 5.01717 6.54422C5.1265 6.73044 5.21961 6.93089 5.2965 7.14556C5.37339 7.36 5.41183 7.58011 5.41183 7.80589C5.41183 8.52544 5.15506 9.12244 4.6415 9.59689C4.12772 10.0711 3.52817 10.2946 2.84283 10.2672C2.7095 10.7117 2.6095 11.1549 2.54283 11.5969C2.47617 12.0387 2.44283 12.5014 2.44283 12.9852C2.44283 13.469 2.47617 13.9318 2.54283 14.3736C2.6095 14.8156 2.7095 15.2588 2.84283 15.7032C3.51106 15.6537 4.10628 15.8716 4.6285 16.3569C5.15072 16.8424 5.41183 17.445 5.41183 18.1646C5.41183 18.4074 5.38239 18.6319 5.3235 18.8379C5.26439 19.0439 5.16228 19.24 5.01717 19.4262C5.22894 19.6689 5.45072 19.8864 5.6825 20.0789C5.91406 20.2711 6.1555 20.469 6.40683 20.6726ZM7.94517 21.5492C8.22383 21.6861 8.51228 21.8053 8.8105 21.9069C9.10894 22.0087 9.41706 22.1014 9.73483 22.1852C9.93661 21.7819 10.2285 21.4597 10.6105 21.2186C10.9927 20.9774 11.4257 20.8569 11.9095 20.8569C12.3931 20.8569 12.8259 20.9774 13.2082 21.2186C13.5902 21.4597 13.8821 21.7819 14.0838 22.1852C14.3932 22.1014 14.6879 22.013 14.9682 21.9199C15.2486 21.8268 15.5282 21.7118 15.8068 21.5749L13.5915 16.6006C13.3333 16.7201 13.0662 16.8141 12.7902 16.8826C12.5142 16.951 12.2206 16.9852 11.9095 16.9852C11.5846 16.9852 11.2764 16.9476 10.9848 16.8722C10.6935 16.7971 10.4187 16.6843 10.1605 16.5339L7.94517 21.5492Z" fill="url(#paint0_linear_255_535)"/>
<defs>
<linearGradient id="paint0_linear_255_535" x1="23.2734" y1="0.139221" x2="-2.24984" y2="22.8915" gradientUnits="userSpaceOnUse">
<stop stop-color="#3D8BF2"/>
<stop offset="1" stop-color="#125DC1"/>
</linearGradient>
</defs>
</svg>
