<svg width="23" height="24" viewBox="0 0 23 24" fill="none" xmlns="http://www.w3.org/2000/svg">
<path d="M9.0555 19.4722C6.60928 19.4722 4.5255 18.6351 2.80417 16.9609C1.08283 15.2865 0.222168 13.2348 0.222168 10.8059V2.65192C0.222168 2.10658 0.419168 1.63692 0.813168 1.24292C1.20717 0.848916 1.67683 0.651917 2.22217 0.651917H18.7222C19.8744 0.651917 20.8568 1.04981 21.6695 1.84558C22.4824 2.64136 22.8888 3.61103 22.8888 4.75458C22.8888 5.92369 22.4845 6.92114 21.6758 7.74692C20.8674 8.57247 19.8828 8.98525 18.7222 8.98525H17.7605V10.8059C17.7605 13.2177 16.9148 15.265 15.2235 16.9479C13.5319 18.6308 11.4759 19.4722 9.0555 19.4722ZM2.22217 6.98525H15.7605V2.65192H2.22217V6.98525ZM17.7605 6.98525H18.7222C19.3291 6.98525 19.8418 6.76736 20.2605 6.33158C20.6794 5.89558 20.8888 5.36992 20.8888 4.75458C20.8888 4.16481 20.6752 3.66692 20.2478 3.26092C19.8205 2.85492 19.3119 2.65192 18.7222 2.65192H17.7605V6.98525ZM1.22217 23.3186C0.93839 23.3186 0.700834 23.2228 0.509501 23.0312C0.317946 22.8399 0.222168 22.6024 0.222168 22.3186C0.222168 22.0348 0.317946 21.7972 0.509501 21.6059C0.700834 21.4144 0.93839 21.3186 1.22217 21.3186H19.2222C19.5059 21.3186 19.7435 21.4144 19.9348 21.6059C20.1264 21.7972 20.2222 22.0348 20.2222 22.3186C20.2222 22.6024 20.1264 22.8399 19.9348 23.0312C19.7435 23.2228 19.5059 23.3186 19.2222 23.3186H1.22217Z" fill="url(#paint0_linear_255_417)"/>
<defs>
<linearGradient id="paint0_linear_255_417" x1="22.8228" y1="0.651917" x2="0.156108" y2="23.3186" gradientUnits="userSpaceOnUse">
<stop stop-color="#3D8BF2"/>
<stop offset="1" stop-color="#125DC1"/>
</linearGradient>
</defs>
</svg>
