<svg width="20" height="20" viewBox="0 0 20 20" fill="none" xmlns="http://www.w3.org/2000/svg">
<mask id="mask0_410_172" style="mask-type:alpha" maskUnits="userSpaceOnUse" x="0" y="0" width="20" height="20">
<rect width="20" height="20" fill="#D9D9D9"/>
</mask>
<g mask="url(#mask0_410_172)">
<path d="M6.66663 11.6186C6.4626 11.6186 6.28871 11.5467 6.14496 11.4031C6.00135 11.2594 5.92954 11.0855 5.92954 10.8815C5.92954 10.6774 6.00135 10.5036 6.14496 10.3598C6.28871 10.2161 6.4626 10.1442 6.66663 10.1442C6.87065 10.1442 7.04454 10.2161 7.18829 10.3598C7.3319 10.5036 7.40371 10.6774 7.40371 10.8815C7.40371 11.0855 7.3319 11.2594 7.18829 11.4031C7.04454 11.5467 6.87065 11.6186 6.66663 11.6186ZM9.99996 11.6186C9.79593 11.6186 9.62204 11.5467 9.47829 11.4031C9.33468 11.2594 9.26288 11.0855 9.26288 10.8815C9.26288 10.6774 9.33468 10.5036 9.47829 10.3598C9.62204 10.2161 9.79593 10.1442 9.99996 10.1442C10.204 10.1442 10.3779 10.2161 10.5216 10.3598C10.6652 10.5036 10.737 10.6774 10.737 10.8815C10.737 11.0855 10.6652 11.2594 10.5216 11.4031C10.3779 11.5467 10.204 11.6186 9.99996 11.6186ZM13.3333 11.6186C13.1293 11.6186 12.9554 11.5467 12.8116 11.4031C12.668 11.2594 12.5962 11.0855 12.5962 10.8815C12.5962 10.6774 12.668 10.5036 12.8116 10.3598C12.9554 10.2161 13.1293 10.1442 13.3333 10.1442C13.5373 10.1442 13.7112 10.2161 13.855 10.3598C13.9986 10.5036 14.0704 10.6774 14.0704 10.8815C14.0704 11.0855 13.9986 11.2594 13.855 11.4031C13.7112 11.5467 13.5373 11.6186 13.3333 11.6186ZM4.42308 17.9167C4.00211 17.9167 3.64579 17.7708 3.35413 17.4792C3.06246 17.1875 2.91663 16.8312 2.91663 16.4102V5.25647C2.91663 4.8355 3.06246 4.47918 3.35413 4.18751C3.64579 3.89585 4.00211 3.75001 4.42308 3.75001H5.57683V2.62814C5.57683 2.4455 5.63802 2.293 5.76038 2.17064C5.88274 2.04842 6.03524 1.9873 6.21788 1.9873C6.40065 1.9873 6.55315 2.04842 6.67538 2.17064C6.79774 2.293 6.85892 2.4455 6.85892 2.62814V3.75001H13.1731V2.6123C13.1731 2.43494 13.2329 2.2864 13.3525 2.16668C13.4722 2.0471 13.6207 1.9873 13.7981 1.9873C13.9754 1.9873 14.1239 2.0471 14.2435 2.16668C14.3632 2.2864 14.4231 2.43494 14.4231 2.6123V3.75001H15.5768C15.9978 3.75001 16.3541 3.89585 16.6458 4.18751C16.9375 4.47918 17.0833 4.8355 17.0833 5.25647V16.4102C17.0833 16.8312 16.9375 17.1875 16.6458 17.4792C16.3541 17.7708 15.9978 17.9167 15.5768 17.9167H4.42308ZM4.42308 16.6667H15.5768C15.641 16.6667 15.6998 16.6399 15.7531 16.5865C15.8066 16.5331 15.8333 16.4744 15.8333 16.4102V8.5898H4.16663V16.4102C4.16663 16.4744 4.19336 16.5331 4.24683 16.5865C4.30017 16.6399 4.35892 16.6667 4.42308 16.6667ZM4.16663 7.3398H15.8333V5.25647C15.8333 5.1923 15.8066 5.13355 15.7531 5.08022C15.6998 5.02675 15.641 5.00001 15.5768 5.00001H4.42308C4.35892 5.00001 4.30017 5.02675 4.24683 5.08022C4.19336 5.13355 4.16663 5.1923 4.16663 5.25647V7.3398Z" fill="#6C757D"/>
</g>
</svg>
