<svg width="26" height="26" viewBox="0 0 26 26" fill="none" xmlns="http://www.w3.org/2000/svg">
<path d="M23.9667 9.19822L16.7334 1.96489L17.3 1.39822C17.6914 1.00667 18.1729 0.814335 18.7447 0.821224C19.3165 0.828112 19.7981 1.02722 20.1897 1.41856L24.5537 5.79556C24.9453 6.18711 25.141 6.66322 25.141 7.22389C25.141 7.78456 24.9453 8.26056 24.5537 8.65189L23.9667 9.19822ZM8.6487 24.5699C8.26581 24.9528 7.79404 25.1484 7.23337 25.1569C6.6727 25.1656 6.20093 24.9784 5.81804 24.5956L1.41537 20.2056C1.02404 19.8142 0.828369 19.3361 0.828369 18.7712C0.828369 18.2061 1.02404 17.7279 1.41537 17.3366L2.01304 16.7389L9.24637 23.9722L8.6487 24.5699ZM13.277 24.0596C13.0359 24.3007 12.7547 24.4212 12.4334 24.4212C12.112 24.4212 11.8308 24.3007 11.5897 24.0596L1.9257 14.3956C1.68459 14.1544 1.56404 13.8732 1.56404 13.5519C1.56404 13.2306 1.68459 12.9493 1.9257 12.7082L3.86404 10.7492C4.10515 10.5083 4.38981 10.3879 4.71804 10.3879C5.04626 10.3879 5.33081 10.5083 5.5717 10.7492L7.86404 13.0546L13.0897 7.82889L10.7847 5.53656C10.5436 5.29544 10.423 5.01422 10.423 4.69289C10.423 4.37156 10.5436 4.09033 10.7847 3.84922L12.723 1.87756C12.9641 1.63645 13.2509 1.51589 13.5834 1.51589C13.9158 1.51589 14.2026 1.63645 14.4437 1.87756L24.1077 11.5416C24.3488 11.7827 24.4694 12.0694 24.4694 12.4019C24.4694 12.7343 24.3488 13.0211 24.1077 13.2622L22.136 15.2006C21.8949 15.4417 21.6137 15.5622 21.2924 15.5622C20.971 15.5622 20.6898 15.4417 20.4487 15.2006L18.1564 12.8956L12.9307 18.1212L15.236 20.4136C15.4769 20.6544 15.5974 20.939 15.5974 21.2672C15.5974 21.5954 15.4769 21.8801 15.236 22.1212L13.277 24.0596Z" fill="url(#paint0_linear_255_498)"/>
<defs>
<linearGradient id="paint0_linear_255_498" x1="25.0702" y1="0.821045" x2="0.734061" y2="25.1337" gradientUnits="userSpaceOnUse">
<stop stop-color="#3D8BF2"/>
<stop offset="1" stop-color="#125DC1"/>
</linearGradient>
</defs>
</svg>
