<svg width="29" height="26" viewBox="0 0 29 26" fill="none" xmlns="http://www.w3.org/2000/svg">
<path d="M4.15391 25.9852C3.49591 25.9852 2.96858 25.7202 2.57191 25.1902C2.17547 24.6605 2.04902 24.0597 2.19258 23.3879C2.48835 22.1263 2.68924 20.8605 2.79524 19.5902C2.90124 18.3202 2.96958 17.0417 3.00024 15.7546C2.06358 15.433 1.32936 14.8641 0.797577 14.0479C0.266022 13.2317 0.000244141 12.3219 0.000244141 11.3186V10.6672C0.000244141 10.233 0.124577 9.84111 0.373244 9.49156C0.622133 9.142 0.952466 8.88434 1.36424 8.71856C3.56091 7.86567 5.62458 6.79345 7.55524 5.50189C9.48613 4.21056 11.331 2.78445 13.0899 1.22356C13.2746 1.06645 13.4695 0.950669 13.6746 0.876225C13.8797 0.802003 14.0994 0.764893 14.3336 0.764893C14.5678 0.764893 14.7875 0.802003 14.9926 0.876225C15.1977 0.950669 15.3926 1.06645 15.5772 1.22356C17.3361 2.78445 19.181 4.21056 21.1119 5.50189C23.0426 6.79345 25.1062 7.86567 27.3029 8.71856C27.7147 8.88434 28.045 9.142 28.2939 9.49156C28.5426 9.84111 28.6669 10.233 28.6669 10.6672V11.3186C28.6669 12.3219 28.4011 13.2317 27.8696 14.0479C27.3378 14.8641 26.6036 15.433 25.6669 15.7546C25.6976 17.0417 25.7659 18.3202 25.8719 19.5902C25.9779 20.8605 26.1788 22.1263 26.4746 23.3879C26.6181 24.0597 26.4917 24.6605 26.0952 25.1902C25.6986 25.7202 25.1712 25.9852 24.5132 25.9852H4.15391ZM4.76424 9.31856H23.9029C22.1456 8.46212 20.475 7.48567 18.8912 6.38923C17.3075 5.29256 15.7882 4.09289 14.3336 2.79023C12.8789 4.09289 11.3597 5.29256 9.77591 6.38923C8.19213 7.48567 6.52158 8.46212 4.76424 9.31856ZM17.6669 13.9852C18.3507 13.9852 18.9106 13.7202 19.3466 13.1902C19.7824 12.6604 20.0002 12.0366 20.0002 11.3186H15.3336C15.3336 12.0366 15.5515 12.6604 15.9872 13.1902C16.4232 13.7202 16.9831 13.9852 17.6669 13.9852ZM11.0002 13.9852C11.684 13.9852 12.2439 13.7202 12.6799 13.1902C13.1157 12.6604 13.3336 12.0366 13.3336 11.3186H8.66691C8.66691 12.0366 8.8848 12.6604 9.32058 13.1902C9.75658 13.7202 10.3165 13.9852 11.0002 13.9852ZM4.33358 13.9852C5.01735 13.9852 5.57724 13.7202 6.01324 13.1902C6.44902 12.6604 6.66691 12.0366 6.66691 11.3186H2.00024C2.00024 12.0366 2.21813 12.6604 2.65391 13.1902C3.08991 13.7202 3.6498 13.9852 4.33358 13.9852ZM4.09758 23.9852H8.39524C8.61236 22.5663 8.77858 21.1566 8.89391 19.7559C9.00924 18.355 9.09602 16.9409 9.15424 15.5136C8.84647 15.3767 8.56824 15.2022 8.31958 14.9902C8.07069 14.7782 7.85313 14.5321 7.66691 14.2519C7.36424 14.6912 6.98091 15.0583 6.51691 15.3532C6.05269 15.6481 5.54713 15.8382 5.00024 15.9236C4.9558 17.2929 4.87369 18.6477 4.75391 19.9879C4.63436 21.3281 4.41558 22.6606 4.09758 23.9852ZM10.4156 23.9852H18.2516C18.0482 22.6519 17.8922 21.3207 17.7836 19.9916C17.6751 18.6625 17.5918 17.3201 17.5336 15.9646C16.8756 15.963 16.2636 15.8049 15.6976 15.4902C15.1318 15.1758 14.6771 14.7528 14.3336 14.2212C13.99 14.7528 13.5354 15.1758 12.9696 15.4902C12.4036 15.8049 11.7916 15.963 11.1336 15.9646C11.0754 17.3201 10.992 18.6625 10.8836 19.9916C10.7749 21.3207 10.6189 22.6519 10.4156 23.9852ZM20.2719 23.9852H24.5696C24.2516 22.6606 24.0328 21.3281 23.9132 19.9879C23.7935 18.6477 23.7114 17.2929 23.6669 15.9236C23.12 15.8382 22.6102 15.6493 22.1376 15.3569C21.6649 15.0647 21.2858 14.6878 21.0002 14.2262C20.8225 14.5151 20.6092 14.7656 20.3606 14.9776C20.1117 15.1896 19.8291 15.3682 19.5129 15.5136C19.5711 16.9409 19.6614 18.355 19.7836 19.7559C19.9058 21.1566 20.0686 22.5663 20.2719 23.9852ZM24.3336 13.9852C25.0174 13.9852 25.5772 13.7202 26.0132 13.1902C26.449 12.6604 26.6669 12.0366 26.6669 11.3186H22.0002C22.0002 12.0366 22.2181 12.6604 22.6539 13.1902C23.0899 13.7202 23.6498 13.9852 24.3336 13.9852Z" fill="url(#paint0_linear_255_529)"/>
<defs>
<linearGradient id="paint0_linear_255_529" x1="28.5834" y1="0.764893" x2="3.5685" y2="29.198" gradientUnits="userSpaceOnUse">
<stop stop-color="#3D8BF2"/>
<stop offset="1" stop-color="#125DC1"/>
</linearGradient>
</defs>
</svg>
