<svg width="7" height="12" viewBox="0 0 7 12" fill="none" xmlns="http://www.w3.org/2000/svg">
<path d="M1.95365 5.98535L6.0269 10.0584C6.16524 10.1969 6.23607 10.3709 6.2394 10.5806C6.24257 10.7901 6.17173 10.9674 6.0269 11.1124C5.8819 11.2572 5.70623 11.3296 5.4999 11.3296C5.29357 11.3296 5.1179 11.2572 4.9729 11.1124L0.47865 6.6181C0.38515 6.52444 0.31915 6.42569 0.28065 6.32185C0.24215 6.21802 0.2229 6.10585 0.2229 5.98535C0.2229 5.86485 0.24215 5.75269 0.28065 5.64885C0.31915 5.54502 0.38515 5.44627 0.47865 5.3526L4.9729 0.858354C5.1114 0.72002 5.28548 0.649187 5.49515 0.645854C5.70465 0.642687 5.8819 0.71352 6.0269 0.858354C6.17173 1.00335 6.24415 1.17902 6.24415 1.38535C6.24415 1.59169 6.17173 1.76735 6.0269 1.91235L1.95365 5.98535Z" fill="white"/>
</svg>
