<svg width="5" height="8" viewBox="0 0 5 8" fill="none" xmlns="http://www.w3.org/2000/svg">
<path d="M1.96914 4L4.68464 6.71533C4.77686 6.80766 4.82409 6.92372 4.82631 7.0635C4.82842 7.20316 4.7812 7.32133 4.68464 7.418C4.58797 7.51455 4.47086 7.56283 4.33331 7.56283C4.19575 7.56283 4.07864 7.51455 3.98197 7.418L0.985807 4.42183C0.923474 4.35939 0.879474 4.29355 0.853808 4.22433C0.828141 4.15511 0.815308 4.08033 0.815308 4C0.815308 3.91966 0.828141 3.84489 0.853808 3.77566C0.879474 3.70644 0.923474 3.64061 0.985807 3.57816L3.98197 0.581996C4.07431 0.489774 4.19036 0.442552 4.33014 0.44033C4.46981 0.438218 4.58797 0.485441 4.68464 0.581996C4.7812 0.678663 4.82947 0.795774 4.82947 0.93333C4.82947 1.07089 4.7812 1.188 4.68464 1.28466L1.96914 4Z" fill="#6C757D"/>
</svg>
