<svg width="96" height="124" viewBox="0 0 96 124" fill="none" xmlns="http://www.w3.org/2000/svg">
<path fill-rule="evenodd" clip-rule="evenodd" d="M16.4445 0C7.7307 0 0.666748 7.16345 0.666748 16V80C0.666748 88.8366 7.7307 96 16.4445 96H79.5556C88.2695 96 95.3334 88.8366 95.3334 80V16C95.3334 7.16344 88.2695 0 79.5556 0H16.4445ZM71.6667 16V23.5559L48.9469 67H41.3733L64.0932 23.5559H24.3334V16H71.6667ZM31.907 23.563H24.3334V32.9929L28.1207 40.5487H31.907V23.563ZM31.9142 32.9929H41.3733V40.5487H31.9142V32.9929ZM48.9469 67.0071H41.3733V76.437L45.1597 83.9929H48.9469V67.0071ZM58.4132 76.437H48.954V83.9929H58.4132V76.437ZM60.3068 74.5559H50.8396V67H67.8795V84H60.3068V74.5559Z" fill="url(#paint0_linear_251_25)"/>
<g clip-path="url(#clip0_251_25)">
<path d="M6.82889 121.483C6.05412 121.483 5.47754 122.037 5.47754 122.758C5.47754 123.48 6.05412 124.017 6.82889 124.017C7.60367 124.017 8.18024 123.446 8.18024 122.758C8.18024 122.037 7.56763 121.483 6.82889 121.483Z" fill="url(#paint1_linear_251_25)"/>
<path d="M5.89189 119.923H7.72973V116.55C7.72973 116.231 7.54955 115.929 7.24324 115.795L1.83784 113.177V110.811C1.83784 110.157 2.37838 109.653 3.08108 109.653H4.64865C5.35135 109.653 5.89189 110.157 5.89189 110.811V113.194L7.72973 114.033V110.811C7.72973 110.006 7.38739 109.301 6.82883 108.781C6.27027 108.261 5.51351 107.942 4.64865 107.942H3.08108C2.23423 107.942 1.45946 108.261 0.900901 108.781C0.342342 109.301 0 110.006 0 110.811V113.697C0 114.016 0.198198 114.318 0.504505 114.452L5.89189 117.07V119.923Z" fill="url(#paint2_linear_251_25)"/>
<path d="M26.9732 112.472L25.1533 112.673L25.766 117.506C25.766 117.892 25.3876 118.211 24.9551 118.211H20.9011V112.237C20.9011 111.767 20.4867 111.381 19.9822 111.381H15.6759C14.3065 111.381 13.0272 111.784 12.0362 112.573C11.0272 113.378 10.4326 114.486 10.4326 115.643C10.4326 116.801 11.0452 117.942 12.0362 118.697C13.0272 119.486 14.3065 119.905 15.6759 119.905C16.9191 119.905 18.1263 119.553 19.0632 118.882V119.066C19.0632 119.536 19.4777 119.922 19.9822 119.922H24.9551C25.6759 119.922 26.3425 119.654 26.829 119.201C27.3155 118.748 27.6038 118.144 27.6038 117.472C27.6038 117.422 27.6038 117.388 27.5858 117.372L26.9732 112.472ZM19.0632 115.643C19.0632 116.365 18.6849 116.986 18.0723 117.439C17.4596 117.909 16.6128 118.194 15.6759 118.194C14.7389 118.194 13.8921 117.909 13.2795 117.439C12.6669 116.986 12.2705 116.365 12.2705 115.643C12.2705 114.922 12.6669 114.301 13.2795 113.831C13.8921 113.378 14.7389 113.093 15.6759 113.093H19.0632V115.643Z" fill="url(#paint3_linear_251_25)"/>
<path d="M24.4868 121.483C23.7481 121.483 23.1355 122.02 23.1355 122.741C23.1355 123.463 23.7481 124 24.4868 124C25.2616 124 25.8562 123.429 25.8562 122.741C25.8562 122.02 25.2616 121.483 24.4868 121.483Z" fill="url(#paint4_linear_251_25)"/>
<path d="M47.1709 109.183C47.9457 109.183 48.5223 108.646 48.5223 107.925C48.5223 107.203 47.9457 106.667 47.1709 106.667C46.3962 106.667 45.8196 107.237 45.8196 107.925C45.8196 108.646 46.4322 109.183 47.1709 109.183Z" fill="url(#paint5_linear_251_25)"/>
<path d="M54.0001 110.995C53.8199 110.71 53.5497 110.559 53.1893 110.559H46.5947C45.1713 110.559 43.892 111.062 42.883 112.002C41.874 112.925 41.3515 114.15 41.3515 115.442V116.214H43.1893V115.442C43.1893 114.569 43.5857 113.764 44.1983 113.193C44.8109 112.623 45.6578 112.271 46.5947 112.271H52.6668L53.2614 113.261L47.4956 118.211H37.8199V113.999C37.8199 113.277 37.5857 112.589 37.1713 112.069C36.6848 111.465 36.0181 111.13 35.3154 111.13H33.7298C32.5947 111.13 31.5677 111.566 30.8289 112.271C30.0902 112.975 29.6217 113.965 29.6217 115.039V115.71C29.6217 116.046 29.7839 116.298 30.0902 116.466L35.9461 119.553C35.8199 120.308 35.3154 121.08 34.5947 121.6C34.1082 121.936 33.3515 122.271 32.3965 122.003C32.1623 121.936 31.8019 121.768 31.4416 121.567C31.0812 121.382 30.7028 121.147 30.4686 120.996L29.4055 122.389L29.7298 122.59C30.0902 122.808 30.5947 123.093 31.1352 123.345C31.6758 123.614 32.2163 123.815 33.0632 123.815C34.0001 123.815 34.883 123.53 35.6938 122.959C36.7749 122.221 37.5316 121.08 37.7479 119.922H47.856C48.1082 119.922 48.3244 119.855 48.4866 119.704L55.0452 114.066C55.3515 113.781 55.4416 113.344 55.2253 113.009L54.0001 110.995ZM35.9821 117.59L31.4596 115.224V115.039C31.4596 114.435 31.7118 113.881 32.1262 113.479C32.5407 113.093 33.0992 112.841 33.7298 112.841H35.3154C35.5857 112.841 35.9821 113.277 35.9821 113.999V117.59Z" fill="url(#paint6_linear_251_25)"/>
<path d="M90.7207 121.483C89.982 121.483 89.3694 122.02 89.3694 122.741C89.3694 123.463 89.982 124 90.7207 124C91.4595 124 92.0721 123.429 92.0721 122.741C92.0721 122.02 91.4595 121.483 90.7207 121.483Z" fill="url(#paint7_linear_251_25)"/>
<path d="M94.649 121.483C93.9102 121.483 93.2976 122.02 93.2976 122.741C93.2976 123.463 93.9102 124 94.649 124C95.3877 124 96.0003 123.429 96.0003 122.741C96.0003 122.02 95.3877 121.483 94.649 121.483Z" fill="url(#paint8_linear_251_25)"/>
<path d="M95.7838 113.009L94.5585 110.996C94.3784 110.711 94.1081 110.56 93.7477 110.56H87.1531C85.7297 110.56 84.4504 111.063 83.4414 112.003C82.4324 112.926 81.9099 114.15 81.9099 115.442V116.214H83.7477V115.442C83.7477 114.57 84.1441 113.765 84.7567 113.194C85.3694 112.624 86.2162 112.271 87.1531 112.271H93.2252L93.8198 113.261L88.054 118.211H78.1982L79.7297 114.57C79.8919 114.184 79.7297 113.731 79.3333 113.513L73.7117 110.442C73.5676 110.358 73.4234 110.325 73.2612 110.325H70.3784C69.964 110.325 69.6216 110.56 69.4955 110.946L68.7387 113.295C68.6126 113.681 68.8108 114.1 69.1892 114.285L73.4775 116.432L72.6126 118.211H67.8739C66.9369 118.211 66.0901 117.859 65.4775 117.288C64.8649 116.718 64.4685 115.963 64.4685 115.09V111.18H62.6306V115.09C62.6306 116.382 63.1712 117.59 64.1802 118.513C65.1892 119.436 66.4865 119.923 67.8739 119.923H73.2072C73.5676 119.923 73.8919 119.738 74.036 119.419L75.5135 116.416C75.7117 116.013 75.5315 115.526 75.1171 115.308L70.7207 113.11L71.063 112.036H73.009L77.7297 114.62L75.982 118.765C75.7477 119.319 76.1802 119.923 76.8468 119.923H88.4144C88.6667 119.923 88.8829 119.856 89.045 119.705L95.6036 114.067C95.9099 113.781 96 113.345 95.7838 113.009Z" fill="url(#paint9_linear_251_25)"/>
<path d="M94.036 120.224C94.036 119.503 93.4233 118.949 92.6846 118.949C91.9459 118.949 91.3333 119.503 91.3333 120.224C91.3333 120.946 91.9098 121.483 92.6846 121.483C93.4594 121.483 94.036 120.912 94.036 120.224Z" fill="url(#paint10_linear_251_25)"/>
</g>
<defs>
<linearGradient id="paint0_linear_251_25" x1="95.0575" y1="0" x2="-0.933098" y2="94.6574" gradientUnits="userSpaceOnUse">
<stop stop-color="#3D8BF2"/>
<stop offset="1" stop-color="#125DC1"/>
</linearGradient>
<linearGradient id="paint1_linear_251_25" x1="8.17236" y1="121.483" x2="5.64392" y2="124.18" gradientUnits="userSpaceOnUse">
<stop stop-color="#3D8BF2"/>
<stop offset="1" stop-color="#125DC1"/>
</linearGradient>
<linearGradient id="paint2_linear_251_25" x1="7.7072" y1="107.942" x2="-3.20846" y2="114.985" gradientUnits="userSpaceOnUse">
<stop stop-color="#3D8BF2"/>
<stop offset="1" stop-color="#125DC1"/>
</linearGradient>
<linearGradient id="paint3_linear_251_25" x1="27.5537" y1="111.381" x2="20.7425" y2="125.075" gradientUnits="userSpaceOnUse">
<stop stop-color="#3D8BF2"/>
<stop offset="1" stop-color="#125DC1"/>
</linearGradient>
<linearGradient id="paint4_linear_251_25" x1="25.8483" y1="121.483" x2="23.339" y2="124.195" gradientUnits="userSpaceOnUse">
<stop stop-color="#3D8BF2"/>
<stop offset="1" stop-color="#125DC1"/>
</linearGradient>
<linearGradient id="paint5_linear_251_25" x1="48.5144" y1="106.667" x2="46.0038" y2="109.362" gradientUnits="userSpaceOnUse">
<stop stop-color="#3D8BF2"/>
<stop offset="1" stop-color="#125DC1"/>
</linearGradient>
<linearGradient id="paint6_linear_251_25" x1="55.2685" y1="110.559" x2="44.5255" y2="131.581" gradientUnits="userSpaceOnUse">
<stop stop-color="#3D8BF2"/>
<stop offset="1" stop-color="#125DC1"/>
</linearGradient>
<linearGradient id="paint7_linear_251_25" x1="90.7129" y1="121.483" x2="89.8073" y2="123.615" gradientUnits="userSpaceOnUse">
<stop stop-color="#F29F05"/>
<stop offset="1" stop-color="#B07300"/>
</linearGradient>
<linearGradient id="paint8_linear_251_25" x1="94.6411" y1="121.483" x2="93.7355" y2="123.615" gradientUnits="userSpaceOnUse">
<stop stop-color="#F29F05"/>
<stop offset="1" stop-color="#B07300"/>
</linearGradient>
<linearGradient id="paint9_linear_251_25" x1="79.1696" y1="110.325" x2="77.9285" y2="119.759" gradientUnits="userSpaceOnUse">
<stop stop-color="#F29F05"/>
<stop offset="1" stop-color="#B07300"/>
</linearGradient>
<linearGradient id="paint10_linear_251_25" x1="92.6767" y1="118.949" x2="91.7609" y2="121.091" gradientUnits="userSpaceOnUse">
<stop stop-color="#F29F05"/>
<stop offset="1" stop-color="#B07300"/>
</linearGradient>
<clipPath id="clip0_251_25">
<rect width="96" height="17.3333" fill="white" transform="translate(0 106.667)"/>
</clipPath>
</defs>
</svg>
