<svg width="32" height="26" viewBox="0 0 32 26" fill="none" xmlns="http://www.w3.org/2000/svg">
<path d="M9.83942 9.18022C9.2872 9.18022 8.86108 9.03022 8.56108 8.73022C8.26108 8.43021 8.11108 8.00411 8.11108 7.45188C8.11108 6.62277 8.30942 5.85399 8.70609 5.14555C9.10253 4.43688 9.63497 3.85522 10.3034 3.40055L14.6494 0.472548C14.9828 0.238326 15.3589 0.121216 15.7778 0.121216C16.1966 0.121216 16.5728 0.238326 16.9061 0.472548L21.2521 3.40055C21.9205 3.85522 22.453 4.43688 22.8494 5.14555C23.2461 5.85399 23.4444 6.62277 23.4444 7.45188C23.4444 8.00411 23.2944 8.43021 22.9944 8.73022C22.6944 9.03022 22.2683 9.18022 21.7161 9.18022H9.83942ZM1.44442 23.6519V9.42622C1.04442 9.20733 0.722195 8.91844 0.477751 8.55955C0.233306 8.20066 0.111084 7.78699 0.111084 7.31855C0.111084 6.86722 0.330751 6.32833 0.770084 5.70188C1.20942 5.07544 1.76753 4.4391 2.44442 3.79288C3.12131 4.4391 3.67942 5.07544 4.11875 5.70188C4.55808 6.32833 4.77775 6.86722 4.77775 7.31855C4.77775 7.78699 4.65553 8.20066 4.41108 8.55955C4.16664 8.91844 3.84442 9.20733 3.44442 9.42622V15.6519H6.77775V12.6519C6.77775 12.1134 6.95342 11.6207 7.30475 11.1736C7.65608 10.7267 8.13509 10.4553 8.74175 10.3595H22.8138C23.4204 10.4553 23.8994 10.7267 24.2508 11.1736C24.6021 11.6207 24.7778 12.1134 24.7778 12.6519V15.6519H28.1111V9.42622C27.7111 9.20733 27.3889 8.91844 27.1444 8.55955C26.9 8.20066 26.7778 7.78699 26.7778 7.31855C26.7778 6.86722 26.9974 6.32833 27.4368 5.70188C27.8761 5.07544 28.4342 4.4391 29.1111 3.79288C29.788 4.4391 30.3461 5.07544 30.7854 5.70188C31.2248 6.32833 31.4444 6.86722 31.4444 7.31855C31.4444 7.78699 31.3222 8.20066 31.0778 8.55955C30.8333 8.91844 30.5111 9.20733 30.1111 9.42622V23.6519C30.1111 24.1972 29.9141 24.6669 29.5201 25.0609C29.1261 25.4549 28.6564 25.6519 28.1111 25.6519H19.4701C19.1265 25.6519 18.8398 25.5369 18.6098 25.3069C18.3798 25.0771 18.2648 24.7904 18.2648 24.4469V20.6519C18.2648 19.9699 18.0208 19.3849 17.5328 18.8969C17.0448 18.4089 16.4598 18.1649 15.7778 18.1649C15.0958 18.1649 14.5108 18.4089 14.0228 18.8969C13.5348 19.3849 13.2908 19.9699 13.2908 20.6519V24.4469C13.2908 24.7904 13.1758 25.0771 12.9458 25.3069C12.7158 25.5369 12.429 25.6519 12.0854 25.6519H3.44442C2.89908 25.6519 2.42942 25.4549 2.03542 25.0609C1.64142 24.6669 1.44442 24.1972 1.44442 23.6519Z" fill="url(#paint0_linear_255_523)"/>
<defs>
<linearGradient id="paint0_linear_255_523" x1="31.3531" y1="0.121216" x2="6.34866" y2="30.8087" gradientUnits="userSpaceOnUse">
<stop stop-color="#3D8BF2"/>
<stop offset="1" stop-color="#125DC1"/>
</linearGradient>
</defs>
</svg>
