<svg width="29" height="29" viewBox="0 0 29 29" fill="none" xmlns="http://www.w3.org/2000/svg">
<g clip-path="url(#clip0_255_511)">
<path d="M2.31543 16.0469C2.31543 15.8706 2.31543 15.7824 2.31543 15.6942C2.31543 11.117 2.31543 6.54702 2.31543 1.96975C2.31543 1.24973 2.57993 0.985229 3.31464 0.985229C10.5149 0.985229 17.7224 0.985229 24.9226 0.985229C25.6353 0.985229 25.9071 1.24973 25.9071 1.95505C25.9071 5.95191 25.9071 9.94876 25.9071 13.9383C25.9071 14.0191 25.9071 14.0999 25.9071 14.2615C25.8116 14.1366 25.7528 14.0705 25.6941 13.997C24.423 12.3072 23.1593 10.6173 21.8882 8.9275C21.4254 8.31769 20.8964 8.31769 20.4409 8.9275C19.5078 10.1765 18.5673 11.4255 17.6342 12.6746C17.5828 12.7407 17.5314 12.7995 17.4579 12.8876C17.3771 12.7848 17.311 12.6966 17.2448 12.6011C16.1501 11.0802 15.048 9.5667 13.9533 8.04584C13.5051 7.42868 12.9541 7.42868 12.5059 8.04584C11.4186 9.55201 10.3312 11.0508 9.2438 12.557C9.19237 12.6305 9.13359 12.7039 9.06012 12.7995C8.99399 12.7039 8.92787 12.6305 8.87644 12.5496C8.42826 11.9104 7.98008 11.2712 7.52456 10.6394C7.12782 10.0884 6.54004 10.0884 6.1433 10.6467C4.93836 12.3586 3.74078 14.0632 2.53584 15.7604C2.47707 15.8338 2.42564 15.9073 2.31543 16.0469ZM8.59725 7.92829C9.87565 7.92829 10.9116 6.89234 10.9189 5.62128C10.9189 4.34288 9.883 3.29958 8.61194 3.30693C7.33354 3.30693 6.29759 4.34288 6.29024 5.62128C6.28289 6.88499 7.32619 7.92829 8.59725 7.92829Z" fill="url(#paint0_linear_255_511)"/>
<path d="M25.2387 27.4423C25.2387 25.8333 25.2387 24.2463 25.2387 22.6079C21.7929 25.2235 18.3691 25.2235 14.916 22.6153C14.916 24.2316 14.916 25.8186 14.916 27.4423C15.0776 27.4423 15.2539 27.435 15.4229 27.4423C15.8711 27.457 16.2017 27.7803 16.2091 28.1991C16.2164 28.6326 15.8784 28.9779 15.4156 28.9779C14.5412 28.9852 13.6669 28.9852 12.8 28.9779C12.3518 28.9705 12.0285 28.6326 12.0212 28.2138C12.0212 27.795 12.3445 27.457 12.7926 27.4423C12.9616 27.435 13.1379 27.4423 13.329 27.4423C13.329 25.8333 13.329 24.2537 13.329 22.6079C9.8905 25.2235 6.45203 25.2235 2.99887 22.6079C2.99887 24.239 2.99887 25.8186 2.99887 27.4423C3.16786 27.4423 3.33684 27.435 3.50582 27.4423C3.9687 27.457 4.30666 27.7877 4.29932 28.2211C4.29932 28.6399 3.9687 28.9779 3.52052 28.9779C2.64621 28.9852 1.7719 28.9852 0.904932 28.9779C0.449409 28.9705 0.11144 28.6252 0.118787 28.1917C0.126134 27.773 0.456756 27.4497 0.904932 27.435C1.06657 27.4276 1.23555 27.435 1.41923 27.435C1.42658 27.3468 1.43393 27.266 1.43393 27.1852C1.43393 25.7525 1.43393 24.3198 1.44127 22.8871C1.44127 22.7181 1.38984 22.63 1.23555 22.5565C0.295119 22.0569 -0.123669 20.9842 0.236341 19.9997C0.581658 19.0519 1.59556 18.4641 2.56539 18.6478C3.63073 18.8535 4.3434 19.7425 4.29932 20.8079C4.29197 20.9548 4.28462 21.1091 4.22585 21.2413C4.12299 21.4618 4.22585 21.572 4.38748 21.6895C5.42343 22.4757 6.59163 22.9459 7.89208 23.0047C9.44967 23.0781 10.8309 22.5565 12.0432 21.5867C12.102 21.5352 12.124 21.3736 12.102 21.2854C11.7346 19.9262 12.7265 18.6111 14.1225 18.6111C15.5037 18.6111 16.5029 19.9262 16.1209 21.2634C16.0695 21.4544 16.1135 21.5426 16.2531 21.6528C18.6483 23.4602 21.477 23.4602 23.8721 21.6601C24.0264 21.5426 24.0632 21.4397 24.0044 21.2487C23.7031 20.1833 24.2836 19.0886 25.3195 18.7213C26.3481 18.3539 27.5016 18.8462 27.9425 19.8527C28.3833 20.8593 27.9792 22.0201 27.0094 22.5491C26.8992 22.6079 26.789 22.6373 26.789 22.8136C26.7963 24.3345 26.7963 25.8627 26.7963 27.435C26.9726 27.435 27.1416 27.4276 27.3106 27.435C27.7735 27.4497 28.1114 27.773 28.1114 28.1991C28.1114 28.6326 27.7735 28.9705 27.3106 28.9705C26.4436 28.9779 25.584 28.9779 24.7171 28.9705C24.2542 28.9632 23.9162 28.6252 23.9236 28.1991C23.9236 27.7656 24.2615 27.4423 24.7318 27.435C24.9007 27.435 25.0624 27.4423 25.2387 27.4423Z" fill="url(#paint1_linear_255_511)"/>
<path d="M7.90674 17.0608C9.6921 14.5922 11.4481 12.1603 13.2334 9.68427C15.0188 12.1529 16.7748 14.5848 18.5601 17.0608C14.9967 17.0608 11.4848 17.0608 7.90674 17.0608Z" fill="url(#paint2_linear_255_511)"/>
<path d="M25.797 16.7008C25.606 16.98 25.3709 17.0755 25.0696 17.0755C23.6002 17.0755 22.1308 17.0755 20.6613 17.0681C20.5658 17.0681 20.4409 17.0167 20.3895 16.9506C19.7282 16.0469 19.0744 15.1432 18.4058 14.2174C19.3168 13.0051 20.2279 11.7855 21.1683 10.5365C22.7259 12.6084 24.2541 14.6509 25.797 16.7008Z" fill="url(#paint3_linear_255_511)"/>
<path d="M6.84142 12.3513C7.2749 12.9684 7.69369 13.5488 8.11248 14.144C7.56144 14.9154 6.97367 15.6575 6.46672 16.451C6.15079 16.9506 5.78343 17.1489 5.19566 17.0902C4.66666 17.0387 4.13032 17.0755 3.60133 17.0755C3.58663 17.0755 3.57194 17.0608 3.52051 17.0387C4.61523 15.4885 5.70996 13.9456 6.84142 12.3513Z" fill="url(#paint4_linear_255_511)"/>
<path d="M8.59736 6.3854C8.17857 6.3854 7.83325 6.03274 7.83325 5.61395C7.83325 5.19516 8.18592 4.8425 8.6047 4.84984C9.02349 4.84984 9.37615 5.20251 9.36881 5.6213C9.36881 6.04008 9.01614 6.3854 8.59736 6.3854Z" fill="url(#paint5_linear_255_511)"/>
</g>
<defs>
<linearGradient id="paint0_linear_255_511" x1="25.8384" y1="0.985229" x2="12.1756" y2="22.3858" gradientUnits="userSpaceOnUse">
<stop stop-color="#3D8BF2"/>
<stop offset="1" stop-color="#125DC1"/>
</linearGradient>
<linearGradient id="paint1_linear_255_511" x1="14.0326" y1="0.985229" x2="14.0326" y2="28.9834" gradientUnits="userSpaceOnUse">
<stop stop-color="#3D8BF2"/>
<stop offset="1" stop-color="#125DC1"/>
</linearGradient>
<linearGradient id="paint2_linear_255_511" x1="18.5291" y1="9.68427" x2="11.6242" y2="19.6564" gradientUnits="userSpaceOnUse">
<stop stop-color="#3D8BF2"/>
<stop offset="1" stop-color="#125DC1"/>
</linearGradient>
<linearGradient id="paint3_linear_255_511" x1="25.7755" y1="10.5365" x2="19.2853" y2="17.8726" gradientUnits="userSpaceOnUse">
<stop stop-color="#3D8BF2"/>
<stop offset="1" stop-color="#125DC1"/>
</linearGradient>
<linearGradient id="paint4_linear_255_511" x1="8.0991" y1="12.3513" x2="3.35285" y2="16.9406" gradientUnits="userSpaceOnUse">
<stop stop-color="#3D8BF2"/>
<stop offset="1" stop-color="#125DC1"/>
</linearGradient>
<linearGradient id="paint5_linear_255_511" x1="9.36444" y1="4.84973" x2="7.82878" y2="6.3854" gradientUnits="userSpaceOnUse">
<stop stop-color="#3D8BF2"/>
<stop offset="1" stop-color="#125DC1"/>
</linearGradient>
<clipPath id="clip0_255_511">
<rect width="28.0147" height="28" fill="white" transform="translate(0.111328 0.985229)"/>
</clipPath>
</defs>
</svg>
