<svg width="27" height="25" viewBox="0 0 27 25" fill="none" xmlns="http://www.w3.org/2000/svg">
<path d="M3.60998 11.5749C3.10709 11.5749 2.69031 11.4105 2.35965 11.0819C2.02876 10.753 1.86331 10.3372 1.86331 9.83454C1.86331 9.33165 2.02776 8.91476 2.35665 8.58387C2.68531 8.2532 3.10109 8.08787 3.60398 8.08787C4.10687 8.08787 4.52365 8.25231 4.85431 8.5812C5.1852 8.90987 5.35065 9.32565 5.35065 9.82854C5.35065 10.3314 5.1862 10.7482 4.85731 11.0789C4.52865 11.4095 4.11287 11.5749 3.60998 11.5749ZM5.19665 22.9852H16.607V15.5749H13.9403C12.5421 15.5749 11.3592 15.0933 10.3916 14.1302C9.42409 13.1669 8.94031 12.0074 8.94031 10.6519C8.94031 9.57676 9.25054 8.6122 9.87098 7.7582C10.4916 6.90443 11.2891 6.26387 12.2633 5.83654C12.4138 4.4092 13.007 3.23098 14.043 2.30187C15.0788 1.37276 16.2668 0.908203 17.607 0.908203C18.9472 0.908203 20.1352 1.37276 21.171 2.30187C22.207 3.23098 22.8001 4.4092 22.9503 5.83654C23.9248 6.26387 24.7222 6.90443 25.3426 7.7582C25.9633 8.6122 26.2736 9.57676 26.2736 10.6519C26.2736 12.0074 25.7899 13.1669 24.8223 14.1302C23.8548 15.0933 22.6719 15.5749 21.2736 15.5749H18.607V22.9852H24.2736C24.557 22.9852 24.7944 23.0811 24.986 23.2729C25.1778 23.4646 25.2736 23.7022 25.2736 23.9855C25.2736 24.2691 25.1778 24.5065 24.986 24.6979C24.7944 24.8894 24.557 24.9852 24.2736 24.9852H3.22231C2.88098 24.9852 2.59476 24.8702 2.36365 24.6402C2.13276 24.4102 2.01731 24.1252 2.01731 23.7852V18.9852C1.77287 18.8348 1.5152 18.6788 1.24431 18.5172C0.973202 18.3556 0.837646 18.1185 0.837646 17.8059V13.9082C0.837646 13.6249 0.933535 13.3874 1.12531 13.1959C1.31687 13.0041 1.55431 12.9082 1.83765 12.9082H5.37598C5.65931 12.9082 5.89687 13.0041 6.08865 13.1959C6.2802 13.3874 6.37598 13.6249 6.37598 13.9082V17.8059C6.37598 18.1185 6.24053 18.3556 5.96965 18.5172C5.69876 18.6788 5.44109 18.8348 5.19665 18.9852V22.9852Z" fill="url(#paint0_linear_255_504)"/>
<defs>
<linearGradient id="paint0_linear_255_504" x1="26.1995" y1="0.908203" x2="2.15876" y2="26.3059" gradientUnits="userSpaceOnUse">
<stop stop-color="#3D8BF2"/>
<stop offset="1" stop-color="#125DC1"/>
</linearGradient>
</defs>
</svg>
