<svg width="16" height="15" viewBox="0 0 16 15" fill="none" xmlns="http://www.w3.org/2000/svg">
<path d="M8 7.19238C7.03467 7.19238 6.21 6.85038 5.526 6.16638C4.842 5.48255 4.5 4.65788 4.5 3.69238C4.5 2.72705 4.842 1.90238 5.526 1.21838C6.21 0.534382 7.03467 0.192383 8 0.192383C8.96533 0.192383 9.79 0.534382 10.474 1.21838C11.158 1.90238 11.5 2.72705 11.5 3.69238C11.5 4.65788 11.158 5.48255 10.474 6.16638C9.79 6.85038 8.96533 7.19238 8 7.19238ZM0.5 13.2886V12.5846C0.5 12.095 0.633 11.6415 0.899 11.2241C1.165 10.8068 1.5205 10.486 1.9655 10.2616C2.95383 9.77713 3.95092 9.41372 4.95675 9.17138C5.96258 8.92905 6.977 8.80788 8 8.80788C9.023 8.80788 10.0374 8.92905 11.0433 9.17138C12.0491 9.41372 13.0462 9.77713 14.0345 10.2616C14.4795 10.486 14.835 10.8068 15.101 11.2241C15.367 11.6415 15.5 12.095 15.5 12.5846V13.2886C15.5 13.7103 15.3523 14.069 15.0568 14.3646C14.7613 14.6601 14.4026 14.8079 13.9808 14.8079H2.01925C1.59742 14.8079 1.23875 14.6601 0.94325 14.3646C0.64775 14.069 0.5 13.7103 0.5 13.2886Z" fill="url(#paint0_linear_138_415)"/>
<defs>
<linearGradient id="paint0_linear_138_415" x1="2.01935" y1="0.192383" x2="13.9806" y2="14.8079" gradientUnits="userSpaceOnUse">
<stop stop-color="#3D8BF2"/>
<stop offset="1" stop-color="#125DC1"/>
</linearGradient>
</defs>
</svg>
