<svg width="22" height="29" viewBox="0 0 22 29" fill="none" xmlns="http://www.w3.org/2000/svg">
<g clip-path="url(#clip0_255_407)">
<path d="M9.86529 28.9852C9.7146 28.8345 9.52282 28.7044 9.42693 28.5263C8.7557 27.3414 8.09816 26.1427 7.44063 24.951C7.40638 24.8893 7.37214 24.8208 7.34474 24.7523C7.24885 24.5195 7.2831 24.3003 7.44748 24.1153C7.61186 23.9373 7.84474 23.8688 8.05022 23.9715C8.86529 24.3825 9.7283 24.3208 10.5913 24.3208C11.016 24.3208 11.4475 24.314 11.8721 24.3208C12.4201 24.3277 12.6872 24.7523 12.4269 25.2318C11.8105 26.3688 11.1804 27.4989 10.5502 28.6222C10.468 28.766 10.3173 28.8619 10.1941 28.9852C10.0845 28.9852 9.97488 28.9852 9.86529 28.9852Z" fill="url(#paint0_linear_255_407)"/>
<path d="M10.4408 0.985229C13.9271 0.998928 17.4271 3.44413 18.7695 7.10852C19.201 8.27975 19.386 9.48523 19.3312 10.725C19.3175 11.0332 19.2627 11.314 18.9339 11.4304C18.6051 11.5469 18.3106 11.4715 18.064 11.2181C17.4613 10.5948 16.7216 10.3003 15.8517 10.3208C15.6873 10.3208 15.5229 10.3208 15.3586 10.3208C14.886 10.314 14.6942 10.1633 14.6188 9.69756C14.475 8.7866 14.1394 7.95783 13.5229 7.26605C12.3106 5.91674 10.7901 5.38934 9.0298 5.76605C7.26267 6.14961 6.07774 7.26605 5.55035 9.00578C5.09829 10.4989 5.38596 11.8893 6.33117 13.1291C6.5435 13.403 6.63254 13.6702 6.55035 14.0126C6.5024 14.2044 6.52295 14.4099 6.52295 14.6085C6.52295 16.6565 6.52295 18.7113 6.52295 20.7592C6.52295 20.8756 6.5161 20.9989 6.49555 21.1154C6.45445 21.3688 6.29692 21.5195 6.05719 21.5811C5.81062 21.6428 5.61199 21.54 5.4613 21.3414C5.44076 21.314 5.42021 21.2797 5.39966 21.2524C4.14624 18.9784 2.86541 16.725 1.65993 14.4304C0.728427 12.6633 0.461304 10.7592 0.817468 8.8003C1.42021 5.47838 3.29692 3.12907 6.35856 1.73865C7.5161 1.21126 8.74898 0.992079 10.4408 0.985229Z" fill="url(#paint1_linear_255_407)"/>
<path d="M14.6804 23.1428C12.9954 23.1428 11.3105 23.1154 9.62556 23.1496C8.41323 23.1702 7.65295 22.3003 7.6735 21.1907C7.7009 18.9578 7.68035 16.725 7.6872 14.4921C7.6872 13.6017 8.1735 12.9373 8.98172 12.7181C9.18035 12.6633 9.39268 12.6496 9.60501 12.6428C10.1256 12.6359 10.6461 12.6359 11.1598 12.6428C11.4132 12.6496 11.6187 12.5674 11.7899 12.3825C11.8995 12.2592 12.0228 12.1496 12.1393 12.0332C12.516 11.6633 12.9612 11.4784 13.4886 11.4784C14.2831 11.4784 15.0708 11.4784 15.8653 11.4784C16.3927 11.4784 16.8447 11.6565 17.2214 12.0263C17.2968 12.1017 17.3858 12.177 17.4543 12.2592C17.6872 12.5537 17.9886 12.6565 18.3653 12.6496C18.9406 12.6291 19.516 12.6222 20.0845 12.6702C21.0228 12.7524 21.653 13.4578 21.6804 14.4031C21.6872 14.6976 21.6804 14.9852 21.6804 15.2798C21.6804 17.2866 21.6804 19.2866 21.6804 21.2935C21.6804 22.2044 21.1804 22.8757 20.3379 23.088C20.1393 23.1359 19.9201 23.1428 19.7146 23.1428C18.0365 23.1496 16.3584 23.1428 14.6804 23.1428ZM14.6872 21.3962C16.6187 21.3894 18.1804 19.8277 18.1804 17.9031C18.1804 15.9852 16.6119 14.4099 14.6872 14.4031C12.7625 14.3962 11.1735 15.9921 11.1804 17.9167C11.1872 19.8414 12.7625 21.3962 14.6872 21.3962Z" fill="url(#paint2_linear_255_407)"/>
<path d="M14.6638 15.9853C15.7622 15.9794 16.6608 16.8794 16.6667 17.9793C16.6726 19.0676 15.7622 19.9793 14.6697 19.9852C13.5831 19.9911 12.6727 19.0793 12.6668 17.9852C12.6609 16.897 13.5654 15.9911 14.6638 15.9853Z" fill="url(#paint3_linear_255_407)"/>
</g>
<defs>
<linearGradient id="paint0_linear_255_407" x1="12.5121" y1="23.9235" x2="7.45321" y2="29.1561" gradientUnits="userSpaceOnUse">
<stop stop-color="#3D8BF2"/>
<stop offset="1" stop-color="#125DC1"/>
</linearGradient>
<linearGradient id="paint1_linear_255_407" x1="19.2861" y1="0.985229" x2="-1.22742" y2="19.5693" gradientUnits="userSpaceOnUse">
<stop stop-color="#3D8BF2"/>
<stop offset="1" stop-color="#125DC1"/>
</linearGradient>
<linearGradient id="paint2_linear_255_407" x1="21.6426" y1="11.4784" x2="10.163" y2="25.2582" gradientUnits="userSpaceOnUse">
<stop stop-color="#3D8BF2"/>
<stop offset="1" stop-color="#125DC1"/>
</linearGradient>
<linearGradient id="paint3_linear_255_407" x1="16.6551" y1="15.9852" x2="12.6551" y2="19.9852" gradientUnits="userSpaceOnUse">
<stop stop-color="#3D8BF2"/>
<stop offset="1" stop-color="#125DC1"/>
</linearGradient>
<clipPath id="clip0_255_407">
<rect width="21.0137" height="28" fill="white" transform="translate(0.666748 0.985229)"/>
</clipPath>
</defs>
</svg>
