<svg width="18" height="14" viewBox="0 0 18 14" fill="none" xmlns="http://www.w3.org/2000/svg">
<path d="M3.373 8.76925H13.3365C14.493 8.76925 15.4761 8.36858 16.2857 7.56725C17.0952 6.76608 17.5 5.78858 17.5 4.63475C17.5 3.48075 17.0952 2.50317 16.2857 1.702C15.4761 0.900667 14.493 0.5 13.3365 0.5C13.124 0.5 12.9459 0.571917 12.8022 0.71575C12.6584 0.859583 12.5865 1.03775 12.5865 1.25025C12.5865 1.46292 12.6584 1.641 12.8022 1.7845C12.9459 1.92817 13.124 2 13.3365 2C14.075 2 14.7035 2.25475 15.222 2.76425C15.7407 3.27375 16 3.8975 16 4.6355C16 5.37333 15.7407 5.99675 15.222 6.50575C14.7035 7.01475 14.075 7.26925 13.3365 7.26925H3.373L6.55575 4.1C6.69792 3.9615 6.77225 3.78842 6.77875 3.58075C6.78525 3.37308 6.71192 3.19433 6.55875 3.0445C6.41825 2.90717 6.24267 2.8385 6.032 2.8385C5.82133 2.8385 5.64783 2.90775 5.5115 3.04625L1.14225 7.377C0.961582 7.5595 0.871248 7.77242 0.871248 8.01575C0.871248 8.25908 0.961582 8.47117 1.14225 8.652L5.5115 12.9827C5.66033 13.1314 5.83425 13.2027 6.03325 13.1965C6.23225 13.1905 6.40642 13.1141 6.55575 12.9672C6.70058 12.8186 6.77558 12.6429 6.78075 12.4402C6.78592 12.2377 6.71092 12.0622 6.55575 11.9135L3.373 8.76925Z" fill="white"/>
</svg>
