<svg width="16" height="17" viewBox="0 0 16 17" fill="none" xmlns="http://www.w3.org/2000/svg">
<path d="M10.2784 13.6814C10.2779 13.2864 10.3836 12.8987 10.5844 12.5585L5.53729 9.619C5.34206 9.95431 5.06243 10.2324 4.72602 10.4258C4.38961 10.6191 4.00838 10.7209 3.62037 10.7208C3.03158 10.7205 2.46667 10.4866 2.05033 10.0703C1.634 9.65392 1.40026 9.08923 1.40002 8.50044C1.40026 7.91173 1.6344 7.34724 2.05076 6.93105C2.46713 6.51485 3.03166 6.28095 3.62037 6.28095C4.00851 6.28078 4.38989 6.38243 4.72645 6.57577C5.06301 6.7691 5.34277 7.04736 5.53815 7.38273L10.5809 4.43892C10.3825 4.0996 10.2779 3.71345 10.2784 3.32035C10.2785 3.02866 10.3362 2.73979 10.448 2.47034C10.5597 2.2009 10.7232 1.95606 10.9296 1.74988C11.1359 1.54371 11.3809 1.38023 11.6504 1.26872C11.92 1.1572 12.2088 1.09989 12.5005 1.10001C12.792 1.10001 13.0807 1.15734 13.35 1.26893C13.6194 1.38052 13.864 1.54413 14.0701 1.75031C14.2762 1.9565 14.4397 2.2014 14.5512 2.47078C14.6627 2.74015 14.7201 3.02882 14.7199 3.32035C14.7201 3.61184 14.6627 3.90039 14.5512 4.16971C14.4397 4.43904 14.2762 4.68384 14.0701 4.88996C13.8639 5.09607 13.6194 5.25941 13.35 5.37091C13.0807 5.4824 12.7919 5.53973 12.5005 5.53962C12.1122 5.53984 11.7308 5.43839 11.3939 5.24524C11.0571 5.05208 10.7769 4.77415 10.5809 4.43892L5.53815 7.38273C5.73601 7.72194 5.8403 8.10774 5.83985 8.50044C5.8405 8.89327 5.73589 9.2792 5.53729 9.61814L10.5844 12.5577C10.7799 12.2231 11.0599 11.9455 11.3961 11.7528C11.7323 11.5601 12.1129 11.4589 12.5005 11.4593C12.7921 11.4593 13.0811 11.5168 13.3505 11.6285C13.6198 11.7401 13.8644 11.9038 14.0705 12.1101C14.2766 12.3163 14.4402 12.5613 14.5517 12.8307C14.6631 13.1002 14.7202 13.3889 14.7199 13.6805C14.7199 14.2692 14.4863 14.8337 14.0701 15.2499C13.6538 15.6661 13.0891 15.9 12.5005 15.9C11.9117 15.9002 11.3471 15.6666 10.9304 15.2506C10.5138 14.8346 10.2791 14.2702 10.2784 13.6814V13.6814Z" stroke="#212529" stroke-width="1.5" stroke-linecap="round"/>
</svg>
