<svg width="12" height="12" viewBox="0 0 12 12" fill="none" xmlns="http://www.w3.org/2000/svg">
<path d="M5.99993 9.51663L3.23326 11.1833C3.11104 11.2611 2.98326 11.2944 2.84993 11.2833C2.7166 11.2722 2.59993 11.2277 2.49993 11.15C2.39993 11.0722 2.32215 10.975 2.2666 10.8583C2.21104 10.7416 2.19993 10.6111 2.23326 10.4666L2.9666 7.31663L0.516595 5.19997C0.405484 5.09997 0.33604 4.98608 0.308262 4.8583C0.280484 4.73052 0.288818 4.60552 0.333262 4.4833C0.377706 4.36108 0.444373 4.26108 0.533262 4.1833C0.622151 4.10552 0.744373 4.05552 0.899929 4.0333L4.13326 3.74997L5.38326 0.783301C5.43882 0.649967 5.52493 0.549967 5.6416 0.483301C5.75826 0.416634 5.87771 0.383301 5.99993 0.383301C6.12215 0.383301 6.2416 0.416634 6.35826 0.483301C6.47493 0.549967 6.56104 0.649967 6.6166 0.783301L7.8666 3.74997L11.0999 4.0333C11.2555 4.05552 11.3777 4.10552 11.4666 4.1833C11.5555 4.26108 11.6222 4.36108 11.6666 4.4833C11.711 4.60552 11.7194 4.73052 11.6916 4.8583C11.6638 4.98608 11.5944 5.09997 11.4833 5.19997L9.03326 7.31663L9.7666 10.4666C9.79993 10.6111 9.78882 10.7416 9.73326 10.8583C9.67771 10.975 9.59993 11.0722 9.49993 11.15C9.39993 11.2277 9.28326 11.2722 9.14993 11.2833C9.0166 11.2944 8.88882 11.2611 8.7666 11.1833L5.99993 9.51663Z" fill="#F29F05"/>
</svg>
