<svg width="27" height="24" viewBox="0 0 27 24" fill="none" xmlns="http://www.w3.org/2000/svg">
<path d="M3.8753 23.6519C3.20197 23.6519 2.63197 23.4185 2.1653 22.9519C1.69864 22.4852 1.4653 21.9151 1.4653 21.2415V10.5902C0.928414 10.1493 0.525414 9.5771 0.256303 8.87354C-0.0130301 8.17021 -0.0185856 7.41088 0.239637 6.59554L1.5883 2.19021C1.76608 1.62954 2.06775 1.17743 2.4933 0.833877C2.91908 0.490321 3.42764 0.318542 4.01897 0.318542H22.219C22.8105 0.318542 23.3156 0.482654 23.7343 0.810876C24.1532 1.1391 24.4583 1.59043 24.6496 2.16488L26.024 6.59554C26.2822 7.41088 26.2766 8.16765 26.0073 8.86588C25.7382 9.56432 25.3352 10.1477 24.7983 10.6159V21.2415C24.7983 21.9151 24.565 22.4852 24.0983 22.9519C23.6316 23.4185 23.0616 23.6519 22.3883 23.6519H3.8753ZM16.0653 9.65188C16.7935 9.65188 17.341 9.42921 17.7076 8.98388C18.0743 8.53854 18.2243 8.06032 18.1576 7.54921L17.3473 2.31854H14.1316V7.58521C14.1316 8.14588 14.3214 8.63054 14.701 9.03921C15.0805 9.44765 15.5353 9.65188 16.0653 9.65188ZM10.0653 9.65188C10.6789 9.65188 11.1766 9.44765 11.5586 9.03921C11.9409 8.63054 12.132 8.14588 12.132 7.58521V2.31854H8.9163L8.1063 7.60054C8.0343 8.0741 8.18297 8.53443 8.55231 8.98154C8.92164 9.42843 9.42597 9.65188 10.0653 9.65188ZM4.13197 9.65188C4.62597 9.65188 5.05075 9.47965 5.4063 9.13521C5.76186 8.79076 5.98153 8.35788 6.0653 7.83654L6.84964 2.31854H4.01897C3.87364 2.31854 3.7583 2.35054 3.67297 2.41454C3.58741 2.47877 3.5233 2.57499 3.48064 2.70321L2.1983 7.04154C2.0223 7.61421 2.1053 8.19243 2.4473 8.77621C2.78908 9.35999 3.35064 9.65188 4.13197 9.65188ZM22.132 9.65188C22.8533 9.65188 23.4054 9.36854 23.7883 8.80188C24.1712 8.23521 24.2635 7.64843 24.0653 7.04154L22.7163 2.67754C22.6736 2.54932 22.6096 2.45743 22.5243 2.40188C22.4388 2.34632 22.3233 2.31854 22.178 2.31854H19.414L20.1983 7.83654C20.2821 8.35788 20.5018 8.79076 20.8573 9.13521C21.2129 9.47965 21.6378 9.65188 22.132 9.65188Z" fill="url(#paint0_linear_255_401)"/>
<defs>
<linearGradient id="paint0_linear_255_401" x1="26.1373" y1="0.318542" x2="2.95605" y2="26.3115" gradientUnits="userSpaceOnUse">
<stop stop-color="#3D8BF2"/>
<stop offset="1" stop-color="#125DC1"/>
</linearGradient>
</defs>
</svg>
