<svg width="16" height="16" viewBox="0 0 16 16" fill="none" xmlns="http://www.w3.org/2000/svg">
<path d="M8.04673 14.6532C7.10673 14.6532 6.16006 14.2932 5.44673 13.5799L2.42673 10.5599C1.69339 9.82656 1.30673 8.81322 1.35339 7.77989L1.51339 4.43989C1.58673 2.84656 2.84673 1.58656 4.44673 1.50656L7.78006 1.34656C8.82006 1.29989 9.82673 1.68656 10.5601 2.41989L13.5801 5.43989C15.0134 6.87322 15.0134 9.21322 13.5801 10.6466L10.6534 13.5732C9.93339 14.2932 8.99339 14.6532 8.04673 14.6532ZM3.13339 9.84656L6.15339 12.8666C7.20006 13.9132 8.90006 13.9132 9.94673 12.8666L12.8734 9.93989C13.9201 8.89322 13.9201 7.19322 12.8734 6.14656L9.84673 3.13322C9.31339 2.59989 8.58673 2.31989 7.82006 2.35322L4.48673 2.51322C3.40673 2.55989 2.56006 3.40656 2.50673 4.48656L2.34673 7.82656C2.31339 8.57322 2.60006 9.31322 3.13339 9.84656Z" fill="#6C757D"/>
<path d="M6.33329 8.50008C5.13996 8.50008 4.16663 7.52675 4.16663 6.33341C4.16663 5.14008 5.13996 4.16675 6.33329 4.16675C7.52663 4.16675 8.49996 5.14008 8.49996 6.33341C8.49996 7.52675 7.52663 8.50008 6.33329 8.50008ZM6.33329 5.16675C5.69329 5.16675 5.16663 5.69341 5.16663 6.33341C5.16663 6.97341 5.69329 7.50008 6.33329 7.50008C6.97329 7.50008 7.49996 6.97341 7.49996 6.33341C7.49996 5.69341 6.97329 5.16675 6.33329 5.16675Z" fill="#6C757D"/>
<path d="M8.66667 11.8332C8.54 11.8332 8.41333 11.7865 8.31333 11.6865C8.12 11.4932 8.12 11.1732 8.31333 10.9799L10.98 8.31321C11.1733 8.11988 11.4933 8.11988 11.6867 8.31321C11.88 8.50655 11.88 8.82655 11.6867 9.01988L9.02 11.6865C8.92 11.7865 8.79333 11.8332 8.66667 11.8332Z" fill="#6C757D"/>
</svg>
