<svg width="21" height="19" viewBox="0 0 21 19" fill="none" xmlns="http://www.w3.org/2000/svg">
<path d="M18.6923 6.50011C19.1679 6.50011 19.5881 6.68253 19.9527 7.04736C20.3176 7.41203 20.5 7.83219 20.5 8.30786V9.92311C20.5 10.0281 20.4865 10.1406 20.4595 10.2606C20.4327 10.3804 20.4026 10.4924 20.3693 10.5964L17.5033 17.3589C17.3601 17.6787 17.1199 17.9489 16.7828 18.1694C16.4456 18.3899 16.0938 18.5001 15.7273 18.5001H5.2115V6.50011L11.0288 0.732859C11.2276 0.534193 11.4578 0.41561 11.7193 0.37711C11.9808 0.33861 12.2313 0.383443 12.471 0.51161C12.7108 0.639943 12.8865 0.822026 12.998 1.05786C13.1095 1.29369 13.1333 1.53794 13.0693 1.79061L11.9923 6.50011H18.6923ZM6.7115 7.13861V17.0001H15.7308C15.8013 17.0001 15.8733 16.9809 15.947 16.9424C16.0208 16.9039 16.077 16.8398 16.1155 16.7501L19 10.0001V8.30786C19 8.21803 18.9712 8.14428 18.9135 8.08661C18.8558 8.02894 18.7821 8.00011 18.6923 8.00011H10.0963L11.35 2.51936L6.7115 7.13861ZM2.30775 18.5001C1.81058 18.5001 1.385 18.3231 1.031 17.9691C0.677 17.6151 0.5 17.1895 0.5 16.6924V8.30786C0.5 7.81069 0.677 7.38511 1.031 7.03111C1.385 6.67711 1.81058 6.50011 2.30775 6.50011H5.2115V8.00011H2.30775C2.21792 8.00011 2.14417 8.02894 2.0865 8.08661C2.02883 8.14428 2 8.21803 2 8.30786V16.6924C2 16.7822 2.02883 16.8559 2.0865 16.9136C2.14417 16.9713 2.21792 17.0001 2.30775 17.0001H5.2115V18.5001H2.30775Z" fill="#495057"/>
</svg>
